# xmcd
#
# Track frame offsets: 
#        150
#        18786
#        34061
#        46448
#        59426
#        91145
#        102809
#        114716
#
# Disc length: 2479 seconds
#
# Revision: 0
# Processed by: cddbd v1.5.2PL0 Copyright (c) Steve Scherf et al.
# Submitted via: ExactAudioCopy v0.95b3
#
DISCID=5d09ad08
DTITLE=Poco - Poco
DYEAR=1900
DGENRE=
TTITLE0=Hurry Up
TTITLE1=You Better Think Twice
TTITLE2=Honky Tonk Downstairs
TTITLE3=Keep On Belivein
TTITLE4=Anyway Bye Bye
TTITLE5=Don't Let It Pass By
TTITLE6=Nobody's Fool
TTITLE7=El Tonto de Nadie. Regresa
EXTD=
EXTT0=
EXTT1=
EXTT2=
EXTT3=
EXTT4=
EXTT5=
EXTT6=
EXTT7=
PLAYORDER=
